<?xml version="1.0" encoding="UTF-8" standalone="no"?>
<svg
   width="449.19229"
   height="484.7066"
   viewBox="0 0 449.19229 484.7066"
   version="1.1"
   id="svg26"
   sodipodi:docname="drift-il.svg"
   inkscape:version="1.1.2 (0a00cf5339, 2022-02-04)"
   xmlns:inkscape="http://www.inkscape.org/namespaces/inkscape"
   xmlns:sodipodi="http://sodipodi.sourceforge.net/DTD/sodipodi-0.dtd"
   xmlns="http://www.w3.org/2000/svg"
   xmlns:svg="http://www.w3.org/2000/svg">
  <defs
     id="defs30" />
  <sodipodi:namedview
     id="namedview28"
     pagecolor="#ffffff"
     bordercolor="#000000"
     borderopacity="0.25"
     inkscape:pageshadow="2"
     inkscape:pageopacity="0.0"
     inkscape:pagecheckerboard="0"
     showgrid="false"
     fit-margin-left="20"
     fit-margin-top="20"
     fit-margin-right="20"
     fit-margin-bottom="20"
     lock-margins="true"
     inkscape:zoom="1.09125"
     inkscape:cx="-110.42383"
     inkscape:cy="278.12142"
     inkscape:window-width="1793"
     inkscape:window-height="1221"
     inkscape:window-x="49"
     inkscape:window-y="0"
     inkscape:window-maximized="0"
     inkscape:current-layer="svg26" />
  <rect
     x="-125.86679"
     y="-121.99999"
     width="700"
     height="800"
     fill="none"
     id="rect2" />
  <!-- graduation cap (green), with tighter spacing -->
  <g
     transform="translate(-125.8668,-40)"
     id="g12">
    <polygon
       points="350,60 210,120 350,180 490,120 "
       fill="#57dc6e"
       id="polygon4" />
    <rect
       x="300"
       y="180"
       width="100"
       height="32"
       rx="5"
       ry="5"
       fill="#57dc6e"
       id="rect6" />
    <line
       x1="470"
       y1="120"
       x2="470"
       y2="190"
       stroke="#57dc6e"
       stroke-width="5"
       stroke-linecap="round"
       id="line8" />
    <circle
       cx="470"
       cy="200"
       r="7"
       fill="#57dc6e"
       id="circle10" />
  </g>
  <!-- drift wordmark scaled further down -->
  <g
     transform="matrix(0.595,0,0,0.595,32.8462,208)"
     id="g20">
    <path
       fill="#57dc6e"
       opacity="1"
       stroke="none"
       d="m 142.95275,51.591594 c 2.99118,-14.55859 6.08596,-28.65909 8.83004,-42.8275104 0.81412,-4.20355 2.81434,-6.20297 6.9693,-6.14786 14.31775,0.19 28.63831,-0.46677 42.95972,0.4093 4.07642,0.24936 5.31793,1.97022 4.89905,5.62174 -1.42075,12.3846104 -4.28305,24.5126904 -6.55365,36.7460304 -10.7522,57.929896 -23.56461,115.439726 -35.27808,173.173546 -1.28552,6.336 -2.37073,12.70484 -4.01373,18.96906 -1.20609,4.59851 -4.06238,6.48565 -8.72583,6.44903 -11.99384,-0.0941 -23.98917,0.0195 -35.98364,-0.0244 -6.21616,-0.0228 -7.41852,-1.77966 -6.38395,-8.07117 0.36682,-2.23089 1.71808,-4.39459 0.62714,-7.47162 -2.63727,1.9552 -5.08798,3.80689 -7.57413,5.60968 -17.998201,13.05097 -38.068021,17.37964 -59.597071,12.53052 -24.45636,-5.50836 -38.4102798,-22.38666 -41.6557698,-46.23681 -5.22547,-38.40079 3.20142,-74.04969 29.4316798,-103.601476 17.32736,-19.52151 40.17663,-27.39483 66.28778,-26.69033 14.105951,0.38055 26.895171,3.74935 38.735721,13.15426 4.37283,-10.33426 4.82736,-20.96026 7.02542,-31.59198 M 88.304549,117.03719 c -7.09161,1.46741 -12.89236,5.08173 -17.83752,10.33377 -10.93021,11.60855 -15.26233,25.9436 -16.75299,41.26679 -0.75257,7.73629 -1.13147,15.71722 3.57632,22.72393 7.76199,11.55228 18.69147,14.59964 31.83035,11.95163 10.29834,-2.07562 18.748631,-7.50274 26.493691,-14.25381 3.98669,-3.47507 2.94095,-8.61408 3.88061,-13.00699 2.98194,-13.94061 5.40259,-28.00076 8.33411,-41.95297 1.08368,-5.15757 -0.24652,-8.27661 -5.07584,-10.7121 -10.65573,-5.37375 -21.60617,-8.45911 -34.448731,-6.35025 z"
       id="path1" />
    <path
       fill="#57dc6e"
       opacity="1"
       stroke="none"
       d="m 466.09844,215.2317 c -1.58503,7.90314 -3.06763,15.39569 -4.46827,22.90362 -0.76037,4.07587 -2.9768,5.92225 -7.25268,5.87665 -12.83063,-0.13702 -25.66376,-0.0156 -38.49579,-0.0514 -6.01843,-0.0169 -7.82324,-2.15259 -6.69452,-8.0224 4.6369,-24.11493 9.32996,-48.21909 14.00244,-72.32715 2.74634,-14.16983 5.40082,-28.35852 8.30817,-42.49521 0.67596,-3.2865 -0.45062,-4.32571 -3.41815,-4.32702 -4.9989,-0.002 -9.99793,0.009 -14.99677,-0.0131 -5.97265,-0.0264 -7.54992,-1.81875 -6.38989,-7.5592 1.97253,-9.760766 4.22961,-19.466946 6.03632,-29.257106 0.94818,-5.13815 3.73529,-6.96454 8.69384,-6.72485 4.48896,0.21695 9.03846,-0.34229 13.48554,0.13955 5.03955,0.54602 6.18988,-2.24814 6.94458,-6.22513 1.26825,-6.68277 2.26172,-13.48132 4.28186,-19.94644 7.83295,-25.06814 24.6513,-40.0346604 50.85168,-44.0317004 12.67017,-1.9329 25.1828,-1.20746 37.54114,2.18746 6.0332,1.65742 6.78308,2.8527 5.4787,8.8375304 -1.76855,8.11447 -3.59961,16.21564 -5.3169,24.34088 -0.96771,4.57843 -3.92895,5.98499 -8.1192,5.11777 -4.80298,-0.99399 -9.67193,-1.2677 -14.37555,-0.25696 -8.03869,1.72745 -12.78826,7.4509 -15.70068,14.77222 -1.82953,4.59915 -3.24707,9.35125 -2.91437,15.11972 8.63947,0 17.09296,-0.0136 25.54639,0.004 6.50226,0.0139 6.64246,0.0583 5.47046,6.23474 -2.04163,10.75965 -4.38196,21.463106 -6.37177,32.231776 -0.71423,3.86484 -2.56396,5.1894 -6.44989,5.05338 -7.3233,-0.25629 -14.66284,-0.0131 -21.99487,-0.0724 -3.02191,-0.0244 -4.67059,0.66577 -5.34686,4.24652 -5.91284,31.30884 -12.09558,62.56671 -18.33496,94.24387 z"
       id="path2" />
    <path
       fill="#57dc6e"
       opacity="1"
       stroke="none"
       d="m 527.1397,107.98255 c 1.98217,-9.529536 3.94592,-18.613486 5.74072,-27.730706 1.00745,-5.11792 3.84881,-7.11572 9.10211,-7.05878 12.62054,0.13675 12.62756,-0.038 15.18475,-12.28796 1.72907,-8.2829 3.55774,-16.54761 5.11023,-24.86374 0.74732,-4.00317 2.75019,-5.55347 6.82483,-5.50168 13.32624,0.16944 26.65595,0.0447 39.98395,0.11087 5.81635,0.0289 6.72833,1.15177 5.58484,6.86545 -1.95422,9.76447 -4.14313,19.48322 -6.00049,29.26541 -1.21936,6.42197 -1.03583,6.46948 5.35101,6.48395 7.83039,0.0177 15.66169,-0.0566 23.49091,0.0407 4.85626,0.0603 6.15155,1.75207 5.15357,6.59488 -2.14435,10.40576 -4.53699,20.763486 -6.48713,31.204556 -0.79175,4.23916 -2.63781,5.82473 -6.99389,5.67395 -8.31983,-0.28794 -16.66211,0.10666 -24.98548,-0.12647 -3.96069,-0.11093 -5.62323,1.51047 -6.34948,5.21756 -4.27564,21.82456 -8.77381,43.60572 -13.00879,65.43799 -2.86798,14.78485 6.17022,22.8902 21.01165,19.3689 4.49579,-1.06665 8.41535,-3.57648 13.66889,-5.27435 -2.23383,10.09673 -4.99518,19.18579 -6.10126,28.47192 -1.26391,10.61127 -7.23798,14.94793 -16.87988,16.90802 -12.20716,2.48163 -24.38336,3.16608 -36.65387,1.20038 -24.87152,-3.98444 -33.70172,-24.70435 -30.36682,-43.85584 4.69397,-26.95676 10.6687,-53.69037 16.07184,-80.52423 0.38818,-1.92801 0.58068,-3.89542 0.89001,-6.02203 -3.8977,-1.50486 -7.73547,-0.75833 -11.47198,-0.80024 -7.5279,-0.0844 -8.25361,-0.7489 -7.87024,-8.79846 z"
       id="path4" />
    <path
       fill="#57dc6e"
       opacity="1"
       stroke="none"
       d="m 288.14678,124.53498 c -10.9206,3.68051 -19.58545,9.92786 -26.61096,18.48981 -3.14536,3.83325 -2.83912,8.78079 -3.73774,13.23074 -5.32406,26.36539 -10.29217,52.80246 -15.45633,79.20047 -1.54345,7.88971 -2.46698,8.51361 -10.6485,8.51435 -12.15985,0.001 -24.3197,0.0175 -36.47952,0.002 -7.61194,-0.01 -8.67758,-1.32666 -7.10745,-8.9422 3.85263,-18.68634 7.85825,-37.34173 11.6026,-56.0495 6.47775,-32.36456 12.80151,-64.75985 19.19607,-97.141076 1.49973,-7.59442 2.63614,-8.55951 10.1905,-8.5694 11.82666,-0.0155 23.65347,-0.0236 35.4801,0.012 7.02252,0.0212 8.52948,1.97448 7.44531,8.80642 -0.53296,3.35828 -2.17547,6.63068 -1.27777,10.27982 2.74292,0.0652 3.81189,-2.12131 5.29675,-3.50589 13.37848,-12.47488 28.93213,-19.29791 47.46405,-18.55432 7.9195,0.31781 9.03717,1.79761 7.51911,9.45874 -2.54853,12.86111 -4.99884,25.741696 -7.47235,38.617576 -0.52942,2.75605 -1.03339,5.28046 -4.94123,4.49515 -10.14081,-2.03787 -20.16998,-1.15841 -30.46264,1.65573 z"
       id="path6" />
    <path
       fill="#57dc6e"
       opacity="1"
       stroke="none"
       d="m 316.25273,236.00428 c 10.31226,-51.50653 20.52356,-102.58871 30.69251,-153.679346 1.63391,-8.2092 2.50415,-9.04663 10.74689,-9.05249 12.16223,-0.009 24.32452,-0.0158 36.48669,0.0106 6.33142,0.0138 7.55096,1.33664 6.37787,7.37363 -6.39484,32.910426 -12.85138,65.808916 -19.29474,98.709956 -3.57306,18.24475 -7.11786,36.49511 -10.7616,54.72577 -1.90558,9.5343 -2.42181,9.87402 -12.09002,9.8731 -11.82898,-0.001 -23.65827,0.0346 -35.48688,-0.0342 -6.17731,-0.0359 -7.07526,-1.11792 -6.67072,-7.92694 z"
       id="path7" />
    <path
       fill="#57dc6e"
       opacity="1"
       stroke="none"
       d="m 362.31627,52.723464 c -9.18744,-6.93125 -9.901,-16.12317 -7.46307,-25.81806 4.4981,-17.8871704 21.65692,-29.1540204 39.72418,-26.5263004 12.76776,1.85699 20.05823,11.3853404 18.98639,24.8144204 -1.58637,19.87528 -26.18665,36.54941 -45.14508,30.52921 -2.02576,-0.64325 -3.87756,-1.83423 -6.10242,-2.99927 z"
       id="path8" />
  </g>
  <!-- tagline larger and closer to drift -->
  <text
     x="224.13321"
     y="416"
     text-anchor="middle"
     font-family="system-ui, sans-serif"
     font-size="49.9px"
     font-weight="600"
     letter-spacing="5"
     fill="#57dc6e"
     id="text22">INTERACTIVE</text>
  <text
     x="224.13321"
     y="464"
     text-anchor="middle"
     font-family="system-ui, sans-serif"
     font-size="49.9px"
     font-weight="600"
     letter-spacing="5"
     fill="#57dc6e"
     id="text24">LEARNING</text>
</svg>
